<?xml version="1.0" encoding="UTF-8" standalone="no"?>
<svg xmlns:ffdec="https://www.free-decompiler.com/flash" xmlns:xlink="http://www.w3.org/1999/xlink" ffdec:objectType="shape" height="34.0px" width="34.0px" xmlns="http://www.w3.org/2000/svg">
  <g transform="matrix(1.0, 0.0, 0.0, 1.0, 0.5, 0.5)">
    <path d="M4.8 4.8 Q9.65 0.0 16.5 0.0 23.35 0.0 28.15 4.8 33.0 9.65 33.0 16.5 33.0 23.35 28.15 28.15 23.35 33.0 16.5 33.0 9.65 33.0 4.8 28.15 0.0 23.35 0.0 16.5 0.0 9.65 4.8 4.8 M20.0 24.0 L27.0 17.0 20.0 10.0 20.0 17.0 20.0 24.0 M6.0 17.0 L20.0 17.0 6.0 17.0" fill="#ffffff" fill-rule="evenodd" stroke="none"/>
    <path d="M20.0 10.0 L27.0 17.0 20.0 24.0 20.0 17.0 20.0 10.0" fill="#ff0000" fill-rule="evenodd" stroke="none"/>
    <path d="M4.8 4.8 Q9.65 0.0 16.5 0.0 23.35 0.0 28.15 4.8 33.0 9.65 33.0 16.5 33.0 23.35 28.15 28.15 23.35 33.0 16.5 33.0 9.65 33.0 4.8 28.15 0.0 23.35 0.0 16.5 0.0 9.65 4.8 4.8 M20.0 10.0 L20.0 17.0 20.0 24.0" fill="none" stroke="#ff0000" stroke-linecap="round" stroke-linejoin="round" stroke-width="1.0"/>
    <path d="M20.0 24.0 L27.0 17.0 20.0 10.0 M20.0 17.0 L6.0 17.0" fill="none" stroke="#ff0000" stroke-linecap="round" stroke-linejoin="round" stroke-width="1.0"/>
  </g>
</svg>
