<?xml version="1.0" encoding="UTF-8" standalone="no"?>
<svg xmlns:ffdec="https://www.free-decompiler.com/flash" xmlns:xlink="http://www.w3.org/1999/xlink" ffdec:objectType="shape" height="14.8px" width="102.25px" xmlns="http://www.w3.org/2000/svg">
  <g transform="matrix(1.0, 0.0, 0.0, 1.0, 0.0, 0.0)">
    <path d="M101.55 10.8 Q101.85 10.9 102.0 11.2 L101.95 11.95 Q101.4 13.25 100.25 14.05 99.2 14.8 97.65 14.8 95.5 14.8 94.25 13.0 93.1 11.45 93.1 9.15 93.1 6.85 94.35 5.15 95.5 3.5 97.65 3.5 99.8 3.5 101.15 5.55 102.25 6.85 102.25 9.15 L102.25 9.65 94.75 9.65 Q94.8 11.05 95.5 12.1 96.35 13.35 97.65 13.35 98.75 13.35 99.45 12.7 L100.45 11.3 100.9 10.8 101.55 10.8 M100.6 8.2 Q100.5 7.1 99.8 6.1 99.0 4.95 97.65 4.95 96.35 4.95 95.55 6.1 94.85 7.05 94.75 8.2 L100.6 8.2 M61.25 4.0 Q62.0 3.5 63.0 3.5 63.6 3.5 63.65 4.25 63.65 5.05 62.95 5.05 L61.5 5.35 Q60.8 5.9 60.5 6.55 L60.5 13.95 60.3 14.55 59.7 14.75 59.15 14.6 58.9 13.95 58.9 4.35 Q58.9 4.05 59.15 3.8 59.4 3.65 59.7 3.65 L60.25 3.8 60.5 4.35 60.5 4.95 Q60.65 4.35 61.25 4.0 M72.0 8.8 L71.4 9.15 69.05 9.65 Q67.65 9.8 67.1 10.3 66.6 10.75 66.6 11.65 66.6 12.5 66.95 12.85 67.55 13.35 68.65 13.35 69.95 13.35 70.8 12.85 L72.0 11.75 72.0 8.8 M68.95 8.2 L71.55 7.6 Q72.0 7.35 72.0 6.65 72.0 5.8 71.45 5.4 70.85 4.95 69.55 4.95 68.35 4.95 67.8 5.3 67.25 5.9 67.15 6.8 L66.8 7.3 66.25 7.45 Q65.95 7.45 65.75 7.25 65.5 6.95 65.55 6.6 65.8 5.05 66.8 4.3 67.9 3.5 69.6 3.5 71.35 3.5 72.5 4.35 73.6 4.95 73.6 6.55 L73.6 12.6 73.7 13.0 74.1 13.1 74.65 13.35 74.85 13.85 74.65 14.35 74.1 14.6 72.45 14.3 Q72.0 13.95 72.0 13.45 L71.15 14.3 68.65 14.8 Q66.85 14.8 65.85 13.85 65.0 13.1 65.0 11.65 65.0 10.3 65.65 9.55 66.55 8.5 68.95 8.2 M83.9 5.2 Q84.25 4.5 85.2 4.0 86.05 3.5 87.15 3.5 88.75 3.5 89.7 4.45 90.55 5.3 90.55 6.4 L90.55 14.0 90.3 14.6 89.75 14.8 89.15 14.55 88.95 14.0 88.95 6.6 Q88.95 5.85 88.55 5.4 88.1 4.95 87.2 4.95 86.2 4.95 85.5 5.4 84.9 5.8 84.4 6.8 L84.4 14.0 84.15 14.6 83.6 14.8 83.0 14.55 82.8 14.0 82.8 6.6 Q82.8 5.85 82.35 5.4 81.9 4.95 81.05 4.95 80.1 4.95 79.45 5.35 78.8 5.75 78.2 6.65 L78.2 14.0 77.95 14.6 77.4 14.8 76.85 14.55 76.6 14.0 76.6 4.5 Q76.6 4.1 76.85 3.85 77.1 3.6 77.4 3.6 L78.0 3.85 78.2 4.5 78.2 5.0 Q78.35 4.45 79.1 4.0 80.05 3.5 81.0 3.5 82.25 3.5 83.1 4.1 83.7 4.55 83.9 5.2 M18.55 6.7 Q18.55 5.95 18.15 5.55 17.55 4.95 16.6 4.95 15.6 4.95 14.8 5.5 13.95 6.05 13.3 7.2 L13.3 13.95 13.1 14.55 12.55 14.8 Q12.2 14.8 11.95 14.6 L11.7 13.95 11.7 4.45 Q11.7 4.1 11.95 3.85 L12.5 3.65 13.05 3.85 13.3 4.45 13.3 5.45 Q13.5 4.55 14.35 4.1 15.35 3.5 16.6 3.5 18.25 3.5 19.1 4.45 20.15 5.4 20.15 6.7 L20.15 13.95 19.9 14.55 19.35 14.8 18.75 14.6 18.55 13.95 18.55 6.7 M33.4 3.5 Q35.55 3.5 36.9 5.55 38.0 6.85 38.0 9.15 L38.0 9.65 30.5 9.65 Q30.55 11.05 31.25 12.1 32.1 13.35 33.4 13.35 34.5 13.35 35.2 12.7 L36.2 11.3 36.65 10.8 37.3 10.8 37.75 11.2 37.7 11.95 Q37.15 13.25 36.0 14.05 34.95 14.8 33.4 14.8 31.25 14.8 30.0 13.0 28.85 11.45 28.85 9.15 28.85 6.85 30.1 5.15 31.25 3.5 33.4 3.5 M36.35 8.2 Q36.25 7.1 35.55 6.1 34.75 4.95 33.4 4.95 32.1 4.95 31.3 6.1 30.6 7.05 30.5 8.2 L36.35 8.2 M44.6 5.05 Q43.75 5.05 43.15 5.35 42.45 5.9 42.15 6.55 L42.15 13.95 41.95 14.55 41.35 14.75 40.8 14.6 Q40.55 14.35 40.55 13.95 L40.55 4.35 40.8 3.8 41.35 3.65 41.9 3.8 42.15 4.35 42.15 4.95 Q42.3 4.35 42.9 4.0 43.65 3.5 44.65 3.5 45.25 3.5 45.3 4.25 45.3 5.05 44.6 5.05 M1.65 9.65 Q1.7 11.05 2.4 12.1 3.25 13.35 4.55 13.35 5.65 13.35 6.35 12.7 L7.35 11.3 7.8 10.8 8.45 10.8 8.9 11.2 8.85 11.95 Q8.3 13.25 7.15 14.05 6.1 14.8 4.55 14.8 2.4 14.8 1.15 13.0 0.0 11.45 0.0 9.15 0.0 6.85 1.25 5.15 2.4 3.5 4.55 3.5 6.7 3.5 8.05 5.55 9.15 6.85 9.15 9.15 L9.15 9.65 1.65 9.65 M7.5 8.2 Q7.4 7.1 6.7 6.1 5.9 4.95 4.55 4.95 3.25 4.95 2.45 6.1 1.75 7.05 1.65 8.2 L7.5 8.2 M25.05 0.75 L25.3 1.35 25.3 3.8 26.65 3.8 Q27.35 3.8 27.35 4.55 27.35 5.25 26.65 5.25 L25.3 5.25 25.3 12.65 Q25.3 12.95 25.45 13.15 25.6 13.35 25.95 13.35 L26.6 13.35 27.2 13.55 27.4 14.05 27.2 14.55 26.6 14.8 25.7 14.8 Q24.75 14.8 24.15 14.05 23.7 13.55 23.7 12.75 L23.7 5.25 22.85 5.25 Q22.2 5.25 22.2 4.55 22.2 3.8 22.85 3.8 L23.7 3.8 23.7 1.35 Q23.7 0.95 23.95 0.75 L24.5 0.55 25.05 0.75 M47.35 2.05 Q47.35 1.2 47.8 0.65 48.4 0.0 49.35 0.0 L56.0 0.0 56.65 0.2 56.85 0.7 56.6 1.25 56.0 1.45 49.55 1.45 49.1 1.65 Q48.95 1.8 48.95 2.1 L48.95 6.3 55.3 6.3 55.9 6.5 56.1 7.0 55.9 7.5 55.3 7.75 48.95 7.75 48.95 14.0 48.65 14.6 48.15 14.8 47.55 14.55 47.35 14.0 47.35 2.05" fill="#0000ff" fill-rule="evenodd" stroke="none"/>
  </g>
</svg>
